#!OML:ASF H:\ManfredETheater\Project 1\Capture day 1\Session 1\subject.ASF
:FULLY-SPECIFIED
:DEGREES
95
root 1.38813 16.0531 -3.74527 -5.93301 3.8666 0.12858
lowerback 4.3947 -0.573444 -3.51611
upperback 0.316535 -0.905361 1.4602
thorax -2.06073 -0.414866 3.53531
lowerneck -19.0612 -1.8935 -2.4794
upperneck 23.1211 -1.99143 0.363239
head 10.6162 -1.08794 0.253584
rclavicle -1.0312e-014 3.55825e-014
rhumerus 26.0574 3.78223 -43.4622
rradius 69.3907
rwrist 9.57463
rhand 6.49639 -21.5522
rfingers 7.12502
rthumb 31.7962 -48.7988
lclavicle -1.0312e-014 3.55825e-014
lhumerus 25.6757 -1.37295 59.769
lradius 74.7492
lwrist -23.4337
lhand 14.3383 16.2057
lfingers 7.12502
lthumb 39.2285 41.6599
rfemur -15.7232 -15.7245 7.98423
rtibia 63.7302
rfoot -33.5487 0.876521
rtoes -12.5499
lfemur -17.7486 5.44938 -10.5892
ltibia 63.7812
lfoot -34.6697 -3.39254
ltoes -13.2523
96
root 1.38689 16.0531 -3.74372 -5.93103 3.86254 0.109371
lowerback 4.39557 -0.572682 -3.49817
upperback 0.312685 -0.903443 1.46357
thorax -2.06557 -0.413887 3.52861
lowerneck -19.0768 -1.89314 -2.49105
upperneck 23.142 -1.99069 0.377426
head 10.6271 -1.0869 0.260521
rclavicle 4.38569e-015 -5.76476e-015
rhumerus 26.0481 3.7878 -43.456
rradius 69.3851
rwrist 9.58966
rhand 6.50128 -21.5512
rfingers 7.12502
rthumb 31.8009 -48.7969
lclavicle 4.38569e-015 -5.76476e-015
lhumerus 25.6697 -1.39428 59.7742
lradius 74.7554
lwrist -23.4056
lhand 14.3229 16.25
lfingers 7.12502
lthumb 39.214 41.7084
rfemur -15.7214 -15.7394 8.00691
rtibia 63.7315
rfoot -33.5508 0.906358
rtoes -12.4644
lfemur -17.7492 5.46362 -10.5596
ltibia 63.7885
lfoot -34.6905 -3.38618
ltoes -13.3168
97
root 1.38522 16.0527 -3.74158 -5.94482 3.85986 0.0870244
lowerback 4.41002 -0.566918 -3.47992
upperback 0.307282 -0.895297 1.46624
thorax -2.08018 -0.409568 3.52089
lowerneck -19.0708 -1.90564 -2.48551
upperneck 23.1572 -2.00679 0.364303
head 10.6316 -1.09548 0.252522
rclavicle -1.82136e-014 1.82882e-014
rhumerus 26.0163 3.79706 -43.4611
rradius 69.377
rwrist 9.57124
rhand 6.48008 -21.5642
rfingers 7.12502
rthumb 31.7807 -48.8139
lclavicle -1.82136e-014 1.82882e-014
lhumerus 25.652 -1.42441 59.7771
lradius 74.7616
lwrist -23.372
lhand 14.2802 16.2444
lfingers 7.12502
lthumb 39.1737 41.7144
rfemur -15.6991 -15.7523 8.03092
rtibia 63.7365
rfoot -33.558 0.906216
rtoes -12.4829
lfemur -17.7308 5.46648 -10.5211
ltibia 63.7943
lfoot -34.6948 -3.41845
ltoes -13.2369
98
root 1.3835 16.0525 -3.74082 -5.94537 3.84307 0.0306536
lowerback 4.42069 -0.565312 -3.43009
upperback 0.300934 -0.89067 1.4839
thorax -2.09357 -0.407251 3.51103
lowerneck -19.0731 -1.89925 -2.49036
upperneck 23.1702 -1.99646 0.365135
head 10.6367 -1.09112 0.255086
rclavicle -2.00897e-014 5.1684e-015
rhumerus 25.9979 3.80672 -43.4618
rradius 69.3853
rwrist 9.55488
rhand 6.49336 -21.5712
rfingers 7.12502
rthumb 31.7933 -48.8184
lclavicle -2.00897e-014 5.1684e-015
lhumerus 25.6327 -1.42964 59.8007
lradius 74.7701
lwrist -23.3738
lhand 14.2944 16.2557
lfingers 7.12502
lthumb 39.1871 41.7219
rfemur -15.7139 -15.7494 8.10783
rtibia 63.7426
rfoot -33.5586 0.901191
rtoes -12.4815
lfemur -17.7397 5.48925 -10.4423
ltibia 63.808
lfoot -34.6988 -3.4366
ltoes -13.2555
99
root 1.38263 16.052 -3.73981 -5.93362 3.85662 0.0397433
lowerback 4.42039 -0.570828 -3.44136
upperback 0.289204 -0.898745 1.48039
thorax -2.10469 -0.410767 3.51436
lowerneck -19.0698 -1.89496 -2.46788
upperneck 23.1873 -1.99002 0.336776
head 10.6417 -1.08978 0.242086
rclavicle -1.0635e-014 -2.50469e-014
rhumerus 25.9823 3.82282 -43.4655
rradius 69.3786
rwrist 9.55006
rhand 6.49351 -21.5665
rfingers 7.12502
rthumb 31.7935 -48.8136
lclavicle -1.0635e-014 -2.50469e-014
lhumerus 25.6075 -1.44069 59.8088
lradius 74.7732
lwrist -23.4117
lhand 14.2787 16.2437
lfingers 7.12502
lthumb 39.1723 41.7142
rfemur -15.7245 -15.7736 8.09428
rtibia 63.7548
rfoot -33.5527 0.930376
rtoes -12.5046
lfemur -17.7515 5.48036 -10.4516
ltibia 63.8191
lfoot -34.7012 -3.42962
ltoes -13.2647
100
root 1.38126 16.0515 -3.738 -5.93554 3.83086 0.0371216
lowerback 4.41823 -0.56398 -3.44031
upperback 0.28144 -0.889534 1.48121
thorax -2.11228 -0.405885 3.51412
lowerneck -19.0628 -1.90027 -2.46476
upperneck 23.2143 -1.99541 0.324029
head 10.6501 -1.09368 0.236161
rclavicle 1.83627e-014 -1.5704e-014
rhumerus 25.9581 3.83048 -43.489
rradius 69.3796
rwrist 9.56078
rhand 6.47794 -21.5548
rfingers 7.12502
rthumb 31.7786 -48.8049
lclavicle 1.83627e-014 -1.5704e-014
lhumerus 25.5746 -1.45794 59.8112
lradius 74.7834
lwrist -23.4012
lhand 14.2577 16.2427
lfingers 7.12502
lthumb 39.1524 41.7188
rfemur -15.7284 -15.7614 8.10369
rtibia 63.7647
rfoot -33.5442 0.945693
rtoes -12.4949
lfemur -17.7439 5.49727 -10.4364
ltibia 63.8265
lfoot -34.7083 -3.45725
ltoes -13.2004
101
root 1.37983 16.0513 -3.73666 -5.94211 3.82859 -0.000653176
lowerback 4.41158 -0.56321 -3.40468
upperback 0.287078 -0.886314 1.48866
thorax -2.10343 -0.404858 3.50135
lowerneck -19.0661 -1.89404 -2.43899
upperneck 23.2155 -1.99125 0.31163
head 10.6506 -1.091 0.227999
rclavicle -2.71962e-014 1.90833e-014
rhumerus 25.9361 3.83336 -43.488
rradius 69.3869
rwrist 9.53514
rhand 6.45227 -21.5907
rfingers 7.12502
rthumb 31.7542 -48.8456
lclavicle -2.71962e-014 1.90833e-014
lhumerus 25.5751 -1.47615 59.8159
lradius 74.7795
lwrist -23.3987
lhand 14.2715 16.2363
lfingers 7.12502
lthumb 39.1654 41.7087
rfemur -15.7248 -15.7707 8.15196
rtibia 63.7711
rfoot -33.5359 0.924746
rtoes -12.5492
lfemur -17.7366 5.50513 -10.3839
ltibia 63.8269
lfoot -34.6998 -3.45038
ltoes -13.2643
102
root 1.3785 16.0513 -3.73352 -5.96082 3.81804 0.0106787
lowerback 4.40588 -0.555955 -3.4316
upperback 0.29072 -0.877722 1.49105
thorax -2.09678 -0.40051 3.51839
lowerneck -19.0172 -1.89452 -2.44236
upperneck 23.1985 -1.99098 0.306919
head 10.6351 -1.09185 0.227393
rclavicle -5.01931e-015 1.37161e-014
rhumerus 25.9175 3.84225 -43.4925
rradius 69.377
rwrist 9.56381
rhand 6.44293 -21.571
rfingers 7.12502
rthumb 31.7453 -48.8277
lclavicle -5.01931e-015 1.37161e-014
lhumerus 25.5576 -1.50051 59.8451
lradius 74.7824
lwrist -23.4223
lhand 14.2716 16.2172
lfingers 7.12502
lthumb 39.1656 41.6896
rfemur -15.6964 -15.7631 8.13711
rtibia 63.7776
rfoot -33.55 0.934678
rtoes -12.5433
lfemur -17.6936 5.50841 -10.3861
ltibia 63.8153
lfoot -34.7129 -3.44972
ltoes -13.2995
103
root 1.37816 16.0514 -3.73122 -5.95142 3.84825 0.066052
lowerback 4.39048 -0.564176 -3.48111
upperback 0.292121 -0.891024 1.47403
thorax -2.08509 -0.407042 3.52923
lowerneck -19.0512 -1.89253 -2.46874
upperneck 23.2236 -1.9861 0.333356
head 10.6514 -1.08866 0.241613
rclavicle 2.62147e-015 8.54774e-015
rhumerus 25.9199 3.84914 -43.4836
rradius 69.3668
rwrist 9.53857
rhand 6.40494 -21.5871
rfingers 7.12502
rthumb 31.7091 -48.851
lclavicle 2.62147e-015 8.54774e-015
lhumerus 25.548 -1.5189 59.8371
lradius 74.7762
lwrist -23.4185
lhand 14.258 16.2383
lfingers 7.12502
lthumb 39.1528 41.7144
rfemur -15.6807 -15.8042 8.05935
rtibia 63.7814
rfoot -33.5656 0.974492
rtoes -12.4953
lfemur -17.6829 5.46832 -10.4571
ltibia 63.7986
lfoot -34.7102 -3.44998
ltoes -13.286
104
root 1.37695 16.0505 -3.72927 -5.95428 3.85948 0.11897
lowerback 4.39845 -0.560832 -3.53858
upperback 0.286293 -0.890033 1.45984
thorax -2.09502 -0.405763 3.54713
lowerneck -19.0481 -1.89337 -2.48189
upperneck 23.2351 -1.98636 0.344786
head 10.6553 -1.08857 0.247858
rclavicle -9.16894e-015 1.21259e-014
rhumerus 25.9069 3.85173 -43.4936
rradius 69.372
rwrist 9.54994
rhand 6.43169 -21.5884
rfingers 7.12502
rthumb 31.7346 -48.8472
lclavicle -9.16894e-015 1.21259e-014
lhumerus 25.5333 -1.55359 59.8398
lradius 74.7722
lwrist -23.4264
lhand 14.2722 16.2227
lfingers 7.12502
lthumb 39.1661 41.6949
rfemur -15.6658 -15.8169 7.99454
rtibia 63.7886
rfoot -33.566 0.976354
rtoes -12.4629
lfemur -17.6613 5.44894 -10.5163
ltibia 63.7829
lfoot -34.7177 -3.42398
ltoes -13.2895
105
root 1.37549 16.0511 -3.72763 -5.96304 3.84936 0.0838533
lowerback 4.39945 -0.552341 -3.50333
upperback 0.2954 -0.876776 1.46606
thorax -2.08777 -0.399747 3.5328
lowerneck -19.0805 -1.89551 -2.4782
upperneck 23.2475 -1.99001 0.346394
head 10.666 -1.08965 0.246967
rclavicle 1.10947e-014 -2.10712e-014
rhumerus 25.901 3.8393 -43.4804
rradius 69.3553
rwrist 9.52867
rhand 6.43113 -21.5928
rfingers 7.12502
rthumb 31.734 -48.8518
lclavicle 1.10947e-014 -2.10712e-014
lhumerus 25.548 -1.5898 59.8353
lradius 74.7598
lwrist -23.4388
lhand 14.2893 16.2016
lfingers 7.12502
lthumb 39.1823 41.6692
rfemur -15.6547 -15.8011 8.04623
rtibia 63.7843
rfoot -33.5662 0.960066
rtoes -12.4544
lfemur -17.6425 5.45323 -10.4677
ltibia 63.7738
lfoot -34.7178 -3.42862
ltoes -13.2761
106
root 1.37429 16.0509 -3.72472 -5.96871 3.89644 0.102426
lowerback 4.36814 -0.564616 -3.53259
upperback 0.316507 -0.8935 1.46189
thorax -2.04663 -0.409096 3.54524
lowerneck -19.1031 -1.89935 -2.48471
upperneck 23.2495 -1.99383 0.35062
head 10.6713 -1.09138 0.248809
rclavicle 1.45982e-014 -2.64384e-014
rhumerus 25.9057 3.82147 -43.4742
rradius 69.3528
rwrist 9.53863
rhand 6.45459 -21.5827
rfingers 7.12502
rthumb 31.7564 -48.8372
lclavicle 1.45982e-014 -2.64384e-014
lhumerus 25.5798 -1.6133 59.8281
lradius 74.7342
lwrist -23.4464
lhand 14.2907 16.1779
lfingers 7.12502
lthumb 39.1836 41.6451
rfemur -15.6125 -15.8477 8.01044
rtibia 63.7849
rfoot -33.6045 0.962438
rtoes -12.5037
lfemur -17.6295 5.4039 -10.4909
ltibia 63.7679
lfoot -34.7256 -3.43595
ltoes -13.2411
107
root 1.37323 16.0503 -3.72322 -5.97226 3.88841 0.0970086
lowerback 4.3803 -0.559119 -3.52464
upperback 0.317763 -0.886146 1.46262
thorax -2.0529 -0.405374 3.54127
lowerneck -19.1421 -1.89545 -2.49964
upperneck 23.273 -1.98747 0.368967
head 10.6877 -1.08747 0.258418
rclavicle 1.43995e-014 -7.7526e-015
rhumerus 25.8977 3.82455 -43.4599
rradius 69.3477
rwrist 9.54905
rhand 6.41107 -21.5972
rfingers 7.12502
rthumb 31.7149 -48.8599
lclavicle 1.43995e-014 -7.7526e-015
lhumerus 25.5819 -1.65261 59.8192
lradius 74.7175
lwrist -23.4364
lhand 14.2912 16.1803
lfingers 7.12502
lthumb 39.1841 41.6473
rfemur -15.6058 -15.8367 8.02181
rtibia 63.7842
rfoot -33.6085 0.957035
rtoes -12.454
lfemur -17.6199 5.39797 -10.4828
ltibia 63.7682
lfoot -34.7311 -3.40175
ltoes -13.3174
108
root 1.37193 16.0492 -3.7223 -5.96016 3.91189 0.090963
lowerback 4.36258 -0.572762 -3.52545
upperback 0.326993 -0.90363 1.46734
thorax -2.03183 -0.414695 3.54723
lowerneck -19.1619 -1.8886 -2.51478
upperneck 23.2602 -1.97895 0.393346
head 10.687 -1.08178 0.270838
rclavicle 1.11692e-014 2.38542e-014
rhumerus 25.9121 3.8247 -43.4412
rradius 69.3422
rwrist 9.5418
rhand 6.42451 -21.5827
rfingers 7.12502
rthumb 31.7277 -48.8428
lclavicle 1.11692e-014 2.38542e-014
lhumerus 25.5963 -1.65603 59.7884
lradius 74.7045
lwrist -23.4487
lhand 14.3116 16.1586
lfingers 7.12502
lthumb 39.2033 41.6201
rfemur -15.6124 -15.8647 8.03081
rtibia 63.7939
rfoot -33.6179 0.924112
rtoes -12.5461
lfemur -17.6367 5.37577 -10.4762
ltibia 63.7768
lfoot -34.7309 -3.38202
ltoes -13.3485
